<svg xmlns="http://www.w3.org/2000/svg" xmlns:xlink="http://www.w3.org/1999/xlink" width="16" height="128" viewBox="0 0 16 128"><svg viewBox="0 0 16 16" fill-rule="evenodd" clip-rule="evenodd" stroke-linejoin="round" stroke-miterlimit="1.414" width="16" height="16" id="codepen" y="0"><path d="M15.988 5.443c-.004-.02-.007-.04-.012-.058l-.01-.033c-.006-.017-.012-.034-.02-.05-.003-.012-.01-.023-.014-.034l-.023-.045-.02-.032-.03-.04-.024-.03a.402.402 0 0 0-.034-.038l-.027-.027-.04-.032-.03-.024-.012-.01L8.38.117a.68.68 0 0 0-.76 0L.305 4.99.296 5a.262.262 0 0 0-.032.023.4.4 0 0 0-.04.032l-.027.027-.034.037-.024.03-.03.04c-.006.012-.013.022-.02.033l-.023.045-.015.034c-.007.016-.012.033-.018.05l-.01.032c-.005.02-.01.038-.012.058l-.006.03A.869.869 0 0 0 0 5.56v4.875c0 .03.002.06.006.09l.007.03c.003.02.006.04.013.058l.01.033c.006.018.01.035.018.05l.015.033c.006.016.014.03.023.047l.02.03a.16.16 0 0 0 .03.042c.007.01.014.02.023.03.01.012.02.025.034.036.01.01.018.02.028.026l.04.033.03.023.01.01 7.31 4.876a.685.685 0 0 0 .762 0l7.314-4.875.01-.01a.262.262 0 0 0 .032-.023.4.4 0 0 0 .04-.032l.027-.027.034-.037.024-.03.03-.04.02-.032.023-.046.015-.033.018-.052.01-.033c.005-.02.01-.038.013-.058 0-.01.003-.02.004-.03a.68.68 0 0 0 .006-.09v-4.87a.68.68 0 0 0-.006-.09l-.007-.03zM8 9.626L5.568 8 8 6.374 10.432 8 8 9.626zM7.312 5.18l-2.98 1.993-2.406-1.61 5.386-3.59v3.206zM3.095 8l-1.72 1.15v-2.3L3.095 8zm1.237.828l2.98 1.993v3.208l-5.386-3.59 2.406-1.61zm4.355 1.993l2.98-1.993 2.407 1.61-5.387 3.59v-3.206zM12.905 8l1.72-1.15v2.3L12.905 8zm-1.237-.827L8.688 5.18V1.97l5.386 3.59-2.406 1.61z" fill-rule="nonzero"></path></svg><svg viewBox="0 0 16 16" fill-rule="evenodd" clip-rule="evenodd" stroke-linejoin="round" stroke-miterlimit="1.414" width="16" height="16" id="facebook" y="16"><path d="M15.117 0H.883A.883.883 0 0 0 0 .883v14.234c0 .488.395.883.883.883h7.663V9.804H6.46V7.39h2.086V5.607c0-2.066 1.262-3.19 3.106-3.19.883 0 1.642.064 1.863.094v2.16h-1.28c-1 0-1.195.476-1.195 1.176v1.54h2.39l-.31 2.416h-2.08V16h4.077a.883.883 0 0 0 .883-.883V.883A.883.883 0 0 0 15.117 0" fill-rule="nonzero"></path></svg><svg viewBox="0 0 16 16" fill-rule="evenodd" clip-rule="evenodd" stroke-linejoin="round" stroke-miterlimit="1.414" width="16" height="16" id="foursquare" y="32"><path d="M11.822 2.31l-.358 1.866c-.043.202-.297.415-.533.415H7.608c-.374 0-.642.256-.642.63v.406c0 .374.27.64.644.64h2.82c.263 0 .523.29.465.57-.057.283-.325 1.682-.357 1.837-.033.154-.21.42-.524.42H7.712c-.42 0-.546.053-.826.402-.28.35-2.804 3.378-2.804 3.378-.025.03-.05.02-.05-.01V2.282c0-.24.207-.52.518-.52h6.85c.25 0 .486.237.422.547zm.3 7.32c.096-.385 1.164-5.856 1.52-7.59M12.327 0H3.792C2.615 0 2.27.886 2.27 1.443v13.56c0 .627.336.86.526.937.19.077.713.142 1.027-.22 0 0 4.03-4.675 4.098-4.744.106-.105.106-.105.21-.105h2.607c1.095 0 1.27-.78 1.386-1.24.095-.385 1.163-5.856 1.52-7.59C13.916.713 13.58 0 12.326 0z" fill-rule="nonzero"></path></svg><svg viewBox="0 0 16 16" fill-rule="evenodd" clip-rule="evenodd" stroke-linejoin="round" stroke-miterlimit="1.414" width="16" height="16" id="github" y="48"><path d="M8 0a8 8 0 0 0-8 8 8 8 0 0 0 5.47 7.59c.4.075.547-.172.547-.385 0-.19-.007-.693-.01-1.36-2.226.483-2.695-1.073-2.695-1.073-.364-.924-.89-1.17-.89-1.17-.725-.496.056-.486.056-.486.803.056 1.225.824 1.225.824.714 1.223 1.873.87 2.33.665.072-.517.278-.87.507-1.07-1.777-.2-3.644-.888-3.644-3.953 0-.873.31-1.587.823-2.147-.083-.202-.358-1.015.077-2.117 0 0 .672-.215 2.2.82a7.68 7.68 0 0 1 2.003-.27c.68.004 1.364.092 2.003.27 1.527-1.035 2.198-.82 2.198-.82.437 1.102.163 1.915.08 2.117.513.56.823 1.274.823 2.147 0 3.073-1.87 3.75-3.653 3.947.287.246.543.735.543 1.48 0 1.07-.01 1.933-.01 2.195 0 .215.144.463.55.385A8 8 0 0 0 8 0"></path></svg><svg viewBox="0 0 16 16" fill-rule="evenodd" clip-rule="evenodd" stroke-linejoin="round" stroke-miterlimit="1.414" width="16" height="16" id="instagram" y="64"><path d="M8 0C5.827 0 5.555.01 4.702.048 3.85.088 3.27.222 2.76.42a3.908 3.908 0 0 0-1.417.923c-.445.444-.72.89-.923 1.417-.198.51-.333 1.09-.372 1.942C.008 5.555 0 5.827 0 8s.01 2.445.048 3.298c.04.852.174 1.433.372 1.942.204.526.478.973.923 1.417.444.445.89.72 1.417.923.51.198 1.09.333 1.942.372.853.04 1.125.048 3.298.048s2.445-.01 3.298-.048c.852-.04 1.433-.174 1.942-.372a3.908 3.908 0 0 0 1.417-.923c.445-.444.72-.89.923-1.417.198-.51.333-1.09.372-1.942.04-.853.048-1.125.048-3.298s-.01-2.445-.048-3.298c-.04-.852-.174-1.433-.372-1.942a3.908 3.908 0 0 0-.923-1.417A3.886 3.886 0 0 0 13.24.42c-.51-.198-1.09-.333-1.942-.372C10.445.008 10.173 0 8 0zm0 1.44c2.136 0 2.39.01 3.233.048.78.036 1.203.166 1.485.276.374.145.64.318.92.598.28.28.453.546.598.92.11.282.24.705.276 1.485.038.844.047 1.097.047 3.233s-.01 2.39-.048 3.233c-.036.78-.166 1.203-.276 1.485-.145.374-.318.64-.598.92-.28.28-.546.453-.92.598-.282.11-.705.24-1.485.276-.844.038-1.097.047-3.233.047s-2.39-.01-3.233-.048c-.78-.036-1.203-.166-1.485-.276a2.472 2.472 0 0 1-.92-.598 2.472 2.472 0 0 1-.598-.92c-.11-.282-.24-.705-.276-1.485C1.45 10.39 1.44 10.136 1.44 8s.01-2.39.048-3.233c.036-.78.166-1.203.276-1.485.145-.374.318-.64.598-.92.28-.28.546-.453.92-.598.282-.11.705-.24 1.485-.276C5.61 1.45 5.864 1.44 8 1.44zm0 2.452a4.108 4.108 0 1 0 0 8.215 4.108 4.108 0 0 0 0-8.215zm0 6.775a2.667 2.667 0 1 1 0-5.334 2.667 2.667 0 0 1 0 5.334zm5.23-6.937a.96.96 0 1 1-1.92 0 .96.96 0 0 1 1.92 0z"></path></svg><svg viewBox="0 0 16 16" fill-rule="evenodd" clip-rule="evenodd" stroke-linejoin="round" stroke-miterlimit="1.414" width="16" height="16" id="px500" y="80"><path d="M14.008 13.3c-.113-.114-.21-.18-.294-.204a.21.21 0 0 0-.22.053l-.056.054a6.34 6.34 0 0 1-2.012 1.357c-.78.33-1.61.498-2.464.498a6.297 6.297 0 0 1-4.477-1.853 6.07 6.07 0 0 1-1.357-2.012 6.8 6.8 0 0 1-.41-1.422l-.008-.04c-.04-.206-.23-.22-.504-.18-.114.02-.46.072-.428.32v.007a7.235 7.235 0 0 0 2.043 3.992A7.234 7.234 0 0 0 8.963 16c.98 0 1.933-.192 2.83-.572a7.216 7.216 0 0 0 2.312-1.56s.038-.036.058-.058c.073-.08.137-.22-.154-.51M8.952 1.713c-.938 0-1.936.19-2.67.507a.21.21 0 0 0-.134.183c-.01.083.013.193.07.337.044.116.165.424.4.335a6.73 6.73 0 0 1 2.334-.444c.857 0 1.688.17 2.47.5.62.262 1.207.642 1.844 1.194.046.04.096.06.146.06.125 0 .244-.12.346-.236.17-.19.287-.35.12-.508a6.824 6.824 0 0 0-2.1-1.355 7.19 7.19 0 0 0-2.826-.57m-1.278 7.93c0 .107.098.2.156.256l.018.018c.1.098.194.148.28.148a.193.193 0 0 0 .134-.05c.044-.04.54-.542.586-.59l.552.55c.052.06.107.087.172.09.088 0 .184-.053.286-.157.238-.244.12-.375.06-.44l-.56-.558.585-.588c.128-.14.015-.286-.098-.4-.163-.162-.32-.205-.423-.11l-.58.58-.587-.587a.157.157 0 0 0-.113-.045c-.078 0-.17.052-.275.157-.18.18-.22.304-.125.403l.587.586-.585.583c-.048.048-.072.1-.07.153m-3.723.867c.004.01.087.24.135.352.263.624.64 1.184 1.122 1.665a5.227 5.227 0 0 0 5.741 1.122 5.214 5.214 0 0 0 1.665-1.122 5.2 5.2 0 0 0 1.533-3.705 5.198 5.198 0 0 0-1.533-3.702A5.22 5.22 0 0 0 8.912 3.59c-.715 0-1.43.14-2.067.41-.51.216-1.37.77-1.875 1.29l-.003.004V.984h7.24c.264-.003.264-.37.264-.492 0-.12 0-.49-.263-.492h-7.83a.344.344 0 0 0-.344.342v6.066c0 .196.244.337.47.386.443.094.545-.047.653-.197l.015-.02c.166-.245.683-.765.688-.77a4.256 4.256 0 0 1 3.035-1.253c1.146 0 2.222.445 3.03 1.25a4.253 4.253 0 0 1 1.254 3.02 4.24 4.24 0 0 1-1.25 3.02 4.331 4.331 0 0 1-3.047 1.252c-.773 0-1.52-.206-2.16-.596l.004-3.688c0-.49.214-1.026.57-1.43.41-.462.973-.716 1.587-.716.595 0 1.15.226 1.565.636.41.407.636.95.636 1.527a2.18 2.18 0 0 1-2.207 2.198c-.24 0-.673-.106-.69-.11-.25-.075-.357.272-.392.387-.135.44.068.527.11.54.398.123.66.147 1 .147a3.174 3.174 0 0 0 3.17-3.17c0-1.734-1.42-3.144-3.167-3.144-.854 0-1.657.327-2.26.92-.575.565-.905 1.32-.905 2.067v.02c-.003.092-.004 2.304-.005 3.03l-.003-.004c-.33-.363-.653-.92-.868-1.488-.086-.223-.276-.183-.536-.103-.114.034-.46.14-.383.39l.002.003z" fill-rule="nonzero"></path></svg><svg viewBox="0 0 16 16" fill-rule="evenodd" clip-rule="evenodd" stroke-linejoin="round" stroke-miterlimit="1.414" width="16" height="16" id="rss" y="96"><path d="M12.8 16C12.8 8.978 7.022 3.2 0 3.2V0c8.777 0 16 7.223 16 16h-3.2zM2.194 11.61c1.21 0 2.195.985 2.195 2.196a2.195 2.195 0 1 1-2.195-2.195zM10.606 16h-3.11c0-4.113-3.383-7.497-7.496-7.497v-3.11c5.818 0 10.606 4.79 10.606 10.607z"></path></svg><svg viewBox="0 0 16 16" fill-rule="evenodd" clip-rule="evenodd" stroke-linejoin="round" stroke-miterlimit="1.414" width="16" height="16" id="twitter" y="112"><path d="M16 3.038a6.62 6.62 0 0 1-1.885.517 3.299 3.299 0 0 0 1.443-1.816 6.59 6.59 0 0 1-2.085.795 3.273 3.273 0 0 0-2.396-1.036 3.281 3.281 0 0 0-3.197 4.03A9.329 9.329 0 0 1 1.114 2.1 3.243 3.243 0 0 0 .67 3.75c0 1.14.58 2.143 1.46 2.732a3.278 3.278 0 0 1-1.487-.41v.04c0 1.59 1.13 2.918 2.633 3.22a3.336 3.336 0 0 1-1.482.056 3.287 3.287 0 0 0 3.067 2.28 6.592 6.592 0 0 1-4.077 1.404c-.265 0-.526-.015-.783-.045a9.303 9.303 0 0 0 5.032 1.474c6.038 0 9.34-5 9.34-9.338 0-.143-.004-.284-.01-.425a6.67 6.67 0 0 0 1.638-1.7z" fill-rule="nonzero"></path></svg></svg>